<?xml version="1.0" standalone="no"?>
<!DOCTYPE svg PUBLIC "-//W3C//DTD SVG 20010904//EN"
 "http://www.w3.org/TR/2001/REC-SVG-20010904/DTD/svg10.dtd">
<svg version="1.0" xmlns="http://www.w3.org/2000/svg"
 width="24.000000pt" height="24.000000pt" viewBox="0 0 24.000000 24.000000"
 preserveAspectRatio="xMidYMid meet">
<metadata>
Created by potrace 1.16, written by Peter Selinger 2001-2019
</metadata>
<g transform="translate(0.000000,24.000000) scale(0.004203,-0.005053)"
fill="#000000" stroke="none">
<path d="M1281 3754 c-24 -30 -26 -52 -10 -87 14 -30 16 -32 217 -111 90 -35
167 -68 171 -72 4 -5 101 -280 216 -612 197 -570 207 -603 191 -621 -21 -23
-146 -366 -146 -401 0 -38 29 -60 78 -60 23 0 42 -2 42 -4 0 -3 -11 -26 -25
-52 -62 -117 -10 -275 109 -330 168 -78 350 34 351 216 0 53 -5 74 -28 114
-15 27 -27 50 -27 52 0 2 119 4 265 4 l266 0 -28 -47 c-23 -40 -28 -59 -28
-118 0 -145 98 -245 240 -245 70 0 126 23 173 70 47 47 64 86 70 160 4 58 1
71 -26 123 l-31 57 53 0 c61 0 86 19 86 67 0 66 34 63 -703 63 -527 0 -667 3
-667 13 0 6 15 53 33 102 l32 90 630 2 c442 2 636 6 651 14 12 6 26 21 32 33
20 45 352 1093 352 1113 0 11 -12 32 -26 47 l-27 26 -945 2 -945 3 -39 115
c-22 63 -44 120 -50 127 -17 21 -416 173 -452 173 -25 0 -40 -7 -55 -26z
m1159 -649 l0 -95 -219 0 c-199 0 -220 2 -226 18 -15 36 -55 156 -55 164 0 4
113 8 250 8 l250 0 0 -95z m540 0 l0 -95 -190 0 -190 0 0 88 c0 49 3 92 7 95
3 4 89 7 190 7 l183 0 0 -95z m640 83 c0 -6 -12 -49 -27 -95 l-27 -83 -208 0
-208 0 0 95 0 95 235 0 c175 0 235 -3 235 -12z m-1182 -445 l-3 -108 -146 -3
c-109 -2 -149 1 -156 10 -9 12 -73 189 -73 203 0 3 86 5 190 5 l191 0 -3 -107z
m542 -3 l0 -110 -187 2 -188 3 -3 94 c-1 52 -1 100 2 108 4 10 46 13 191 13
l185 0 0 -110z m530 102 c0 -4 -15 -53 -33 -107 l-34 -100 -146 -3 -147 -3 0
111 0 110 180 0 c99 0 180 -4 180 -8z m-1070 -462 l0 -90 -94 0 c-80 0 -95 3
-101 18 -9 23 -55 155 -55 159 0 2 56 3 125 3 l125 0 0 -90z m540 0 l0 -90
-187 2 -188 3 -3 88 -3 87 191 0 190 0 0 -90z m407 78 c-2 -7 -14 -48 -27 -90
l-23 -78 -93 0 -94 0 0 90 0 90 121 0 c93 0 120 -3 116 -12z m-1081 -762 c52
-52 44 -128 -18 -166 -40 -24 -60 -25 -103 -4 -105 49 -64 204 54 204 24 0 42
-9 67 -34z m877 23 c62 -32 77 -114 31 -168 -81 -96 -226 6 -173 122 22 48 93
71 142 46z"/>
</g>
</svg>
