<?xml version="1.0" standalone="no"?>
<!DOCTYPE svg PUBLIC "-//W3C//DTD SVG 20010904//EN"
 "http://www.w3.org/TR/2001/REC-SVG-20010904/DTD/svg10.dtd">
<svg version="1.0" xmlns="http://www.w3.org/2000/svg"
 width="816.000000pt" height="521.000000pt" viewBox="0 0 816.000000 521.000000"
 preserveAspectRatio="xMidYMid meet">
<metadata>
Created by potrace 1.16, written by Peter Selinger 2001-2019
</metadata>
<g transform="translate(0.000000,521.000000) scale(0.100000,-0.100000)"
fill="#000000" stroke="none">
<path d="M77 5083 c-4 -3 -7 -11 -7 -18 0 -12 90 -138 102 -143 5 -2 8 -412 8
-912 0 -798 -2 -909 -15 -914 -11 -4 -15 -21 -15 -62 0 -175 123 -386 285
-489 74 -47 170 -82 264 -96 75 -10 86 -10 96 5 11 14 62 16 534 16 l522 0 78
-55 c43 -30 84 -55 90 -55 20 0 22 42 19 410 -3 320 -5 365 -19 368 -8 1 -50
-22 -92 -53 l-77 -55 -525 0 c-434 0 -525 2 -525 14 0 7 -14 23 -30 36 l-30
23 0 908 c0 499 3 909 8 911 17 7 102 134 100 148 -3 13 -52 15 -384 18 -209
1 -383 -1 -387 -5z m529 -55 c-3 -7 -7 -25 -10 -40 l-6 -28 -129 0 c-139 0
-141 1 -141 56 l0 24 145 0 c111 0 143 -3 141 -12z m-266 -163 c0 -60 20 -58
21 3 1 26 3 39 6 30 6 -22 23 -24 23 -2 0 13 13 15 80 13 57 -2 80 -7 80 -16
0 -19 28 -16 33 5 3 9 5 -392 5 -893 1 -569 -3 -901 -9 -887 -9 23 -29 22 -29
-2 0 -8 -25 -13 -80 -15 -72 -2 -80 0 -80 16 -1 17 -2 17 -15 -1 -14 -18 -15
-17 -15 22 0 23 -4 42 -10 42 -5 0 -10 -18 -10 -40 0 -22 -4 -40 -10 -40 -7 0
-10 308 -10 905 0 597 3 905 10 905 6 0 10 -20 10 -45z m-18 -1905 c7 0 8 17
5 44 l-6 44 138 0 139 0 5 -26 c7 -32 33 -70 42 -60 4 3 1 16 -5 28 -6 12 7 3
29 -19 23 -23 51 -42 64 -42 16 -1 17 -3 5 -6 -10 -2 -28 3 -40 11 -12 9 -28
16 -36 16 -23 0 -1 -22 44 -41 l43 -19 0 -135 c0 -150 4 -143 -74 -125 -22 5
-42 7 -44 4 -10 -9 23 -23 71 -29 26 -4 48 -11 48 -16 0 -11 5 -11 -65 2 -125
23 -247 106 -317 213 -42 65 -79 170 -77 220 1 26 3 23 11 -16 6 -27 15 -48
20 -48z m1667 -210 l2 -151 -28 7 c-15 3 -34 7 -41 10 -10 3 -12 35 -10 136
l3 133 30 6 c17 4 33 7 37 8 3 0 7 -67 7 -149z m-129 130 c0 -5 -23 -10 -51
-10 -64 0 -56 -19 9 -21 34 -2 39 -3 17 -6 -47 -7 -55 -23 -11 -23 l37 0 -2
-79 c-3 -70 -6 -81 -24 -87 -19 -6 -19 -7 3 -11 12 -2 22 -9 22 -14 0 -5 -210
-9 -531 -9 -351 0 -528 3 -524 10 3 6 13 10 21 10 8 0 14 5 14 10 0 6 -8 10
-17 10 -15 0 -18 11 -21 75 -3 71 -2 76 20 84 l23 9 -25 10 c-25 11 -24 11 8
11 40 1 43 21 2 21 -16 0 -30 5 -30 10 0 7 183 10 530 10 347 0 530 -3 530
-10z"/>
<path d="M2131 5040 c-13 -11 -38 -20 -57 -20 -53 0 -194 -36 -266 -69 -124
-55 -245 -149 -322 -250 -410 -533 -97 -1295 567 -1381 40 -5 77 -16 87 -25
16 -15 31 -16 97 -10 163 15 289 62 432 159 l85 58 75 -40 c68 -36 160 -70
232 -86 25 -5 26 -8 19 -48 -8 -45 -10 -66 -31 -382 -11 -156 -16 -192 -32
-212 -10 -13 -25 -24 -32 -24 -40 0 -60 -103 -30 -160 18 -34 43 -44 79 -30
37 14 46 13 40 -5 -4 -8 -9 -13 -13 -11 -15 10 -31 -13 -39 -55 -5 -25 -19
-56 -31 -68 -16 -16 -19 -26 -12 -35 15 -17 3 -53 -20 -59 -19 -5 -27 -37 -9
-37 6 0 10 -7 10 -15 0 -8 -7 -15 -15 -15 -21 0 -30 -27 -15 -45 10 -13 9 -15
-10 -15 -18 0 -21 -4 -18 -24 4 -18 0 -26 -15 -30 -14 -3 -18 -11 -14 -25 4
-16 0 -21 -14 -21 -10 0 -19 -6 -19 -13 0 -8 -12 -20 -26 -28 -43 -23 -140
-135 -170 -197 -18 -39 -27 -74 -28 -111 -1 -49 2 -55 34 -82 32 -27 39 -29
125 -29 109 0 245 29 332 69 60 29 132 92 221 196 17 21 34 36 37 33 6 -6 46
-460 41 -466 -2 -2 -30 8 -61 23 -65 29 -251 53 -284 36 -33 -18 -93 -93 -118
-147 -34 -74 -38 -114 -19 -170 9 -26 14 -49 12 -51 -2 -3 -10 13 -16 34 -23
70 -44 64 -91 -29 -42 -83 -61 -161 -50 -210 5 -22 26 -66 46 -99 20 -32 69
-119 110 -193 134 -245 216 -345 355 -435 120 -78 328 -121 436 -91 60 17 123
76 126 116 5 110 -53 229 -179 367 -53 57 -54 59 -37 78 24 27 6 46 -27 28
-13 -7 -38 -14 -56 -14 -28 -2 -31 0 -22 17 6 10 21 18 37 18 37 0 56 14 48
35 -7 18 -11 18 -103 -8 -29 -8 -53 -13 -53 -11 0 14 77 57 103 58 25 1 33 6
35 24 4 24 -15 29 -46 13 -9 -4 -39 -11 -66 -14 l-48 -5 20 21 c11 11 37 23
58 26 39 6 55 25 30 34 -9 4 -28 2 -43 -3 -15 -4 -48 -11 -73 -15 l-45 -6 30
31 c22 23 38 30 66 30 44 0 67 21 44 40 -11 9 -22 9 -46 1 -47 -16 -68 -15
-43 4 10 8 31 15 46 15 31 0 58 34 34 43 -7 3 -19 1 -27 -4 -8 -5 -43 -9 -79
-8 -61 0 -64 1 -40 14 14 8 48 14 77 15 55 0 72 10 49 30 -10 7 -30 9 -60 5
-25 -4 -58 -4 -73 0 -26 8 -24 9 27 22 30 8 65 15 77 16 32 3 49 23 35 40 -9
10 -7 23 8 52 24 48 34 97 26 130 -5 18 -17 28 -46 36 -22 7 -45 17 -50 24 -5
6 -16 94 -25 196 -8 101 -18 216 -21 255 l-7 71 94 55 c52 31 126 74 166 97
90 51 124 80 147 124 41 75 -12 123 -130 115 -47 -3 -81 -14 -147 -47 -85 -42
-127 -47 -127 -16 0 19 67 75 115 96 57 25 155 39 201 29 41 -10 57 -5 34 10
-24 15 -141 11 -200 -6 -92 -27 -177 -98 -168 -140 2 -10 16 -22 31 -27 23 -7
42 -2 115 33 104 50 188 63 240 36 72 -37 13 -116 -158 -211 -58 -32 -128 -73
-157 -91 l-52 -33 -5 32 c-5 31 -9 81 -22 243 l-6 82 62 42 c141 96 227 122
276 85 92 -70 26 127 -91 268 -77 93 -146 135 -266 161 -26 6 -27 8 -38 128
-6 68 -16 184 -22 258 -6 74 -11 139 -12 145 -1 5 27 13 63 17 166 22 312 98
440 227 93 94 148 185 192 316 20 61 23 89 23 225 0 135 -3 164 -23 224 -69
207 -200 364 -382 460 -91 48 -215 86 -281 86 -26 0 -45 7 -58 22 -20 20 -24
21 -108 10 -113 -14 -231 -51 -314 -100 l-66 -39 -64 49 c-125 94 -298 160
-454 172 -71 6 -83 4 -104 -14z m200 -150 c90 -23 156 -51 228 -97 58 -38 161
-130 161 -146 0 -5 -14 5 -30 23 -17 18 -33 30 -36 27 -8 -8 30 -61 60 -84 12
-10 28 -34 34 -53 l12 -35 -19 25 c-11 14 -23 22 -27 18 -11 -12 24 -58 40
-52 16 6 30 -26 17 -39 -12 -12 16 -70 30 -62 5 4 7 12 3 18 -3 7 2 3 10 -7 9
-11 19 -34 22 -53 7 -38 22 -52 34 -32 14 21 25 -57 25 -171 0 -101 -13 -199
-22 -172 -9 24 -22 11 -38 -38 -9 -27 -21 -53 -27 -56 -6 -4 -8 -2 -4 4 3 6 2
13 -3 17 -14 8 -42 -50 -30 -62 13 -13 -1 -45 -17 -39 -16 6 -51 -40 -40 -52
4 -4 16 4 27 18 l19 25 -10 -31 c-6 -17 -33 -55 -61 -85 -30 -32 -45 -55 -37
-58 6 -2 25 11 40 30 15 18 28 28 28 22 0 -17 -121 -124 -184 -162 -78 -47
-208 -89 -291 -95 -38 -3 -60 -3 -47 0 24 6 31 24 8 24 -19 0 -28 56 -25 165
2 81 5 94 21 98 23 6 24 27 1 28 -10 0 7 6 37 13 30 6 78 23 105 36 68 34 156
123 185 188 15 34 29 51 39 50 21 -4 48 99 31 116 -8 8 -13 7 -20 -4 -7 -10
-9 4 -8 45 1 43 2 49 5 22 3 -24 9 -37 16 -34 7 2 11 19 8 42 -4 55 -18 86
-34 79 -8 -3 -21 13 -35 45 -49 107 -149 188 -273 221 -41 10 -66 19 -56 19
23 1 22 17 -1 23 -16 5 -19 18 -21 116 -1 72 2 112 9 117 8 5 8 11 -1 21 -9
11 -7 14 10 14 28 0 27 17 -1 23 -13 2 -5 5 18 6 22 0 74 -8 115 -19z m-206
-20 c-3 -5 -22 -10 -41 -10 -19 0 -34 -5 -34 -11 0 -8 14 -10 40 -6 22 3 40 1
40 -4 0 -5 -9 -9 -20 -9 -27 0 -25 -18 3 -22 19 -3 22 -10 25 -61 2 -40 -1
-58 -10 -61 -51 -15 -54 -19 -23 -26 30 -7 30 -7 5 -13 -14 -3 -42 -9 -62 -12
-21 -3 -40 -11 -44 -17 -7 -11 42 -7 104 9 12 3 22 1 22 -5 0 -5 -21 -12 -47
-16 -122 -16 -268 -126 -323 -242 -85 -181 -50 -377 93 -511 72 -67 135 -100
220 -117 69 -13 76 -28 10 -19 -57 7 -50 -7 10 -24 26 -7 34 -11 20 -12 -13
-1 -23 -5 -23 -10 0 -5 10 -11 23 -13 20 -3 22 -9 25 -65 3 -62 3 -63 -22 -63
-14 0 -26 -4 -26 -10 0 -5 9 -10 20 -10 11 0 20 -4 20 -10 0 -6 -18 -7 -45 -3
-60 8 -58 -11 3 -24 45 -10 45 -10 12 -11 -47 -2 -147 22 -222 54 -185 78
-342 256 -404 459 -14 45 -19 93 -19 195 0 116 3 145 24 205 43 129 89 204
181 296 72 73 101 94 181 133 91 44 189 73 257 75 20 1 31 -3 27 -9z m1045
-52 l-25 -11 23 -5 c15 -2 22 -9 18 -17 -3 -8 -1 -17 4 -20 15 -9 12 -179 -2
-193 -10 -10 -10 -15 2 -22 15 -10 17 -9 -30 -23 -11 -3 -8 -8 10 -15 24 -10
24 -11 3 -11 -52 -2 -135 -44 -188 -96 -30 -29 -55 -50 -55 -46 0 4 5 12 12
19 6 6 9 15 5 19 -4 4 -12 2 -18 -4 -8 -8 -20 -2 -45 22 -38 38 -98 151 -88
167 4 5 0 14 -7 19 -11 6 -11 11 -1 21 17 17 15 39 -3 32 -30 -12 -14 6 41 47
96 70 244 126 339 127 l30 1 -25 -11z m220 -9 c41 -11 106 -37 145 -57 95 -49
218 -172 267 -267 103 -198 104 -431 1 -628 -53 -102 -172 -219 -279 -275 -82
-42 -184 -73 -239 -71 -23 1 -19 3 15 9 247 42 435 189 524 409 36 90 50 179
43 285 -20 310 -254 559 -572 605 -52 7 -55 9 -20 10 22 0 74 -8 115 -20z m21
-39 c186 -57 351 -223 410 -410 29 -91 35 -226 15 -320 -36 -173 -162 -343
-311 -422 -87 -45 -202 -81 -247 -76 -31 4 -31 4 -8 10 14 4 42 10 63 13 59
10 43 24 -21 18 l-59 -6 -6 33 c-13 62 -8 130 8 130 21 0 19 20 -2 21 -10 1
-1 6 20 11 48 13 50 33 2 24 -20 -4 -35 -3 -35 2 0 6 20 13 44 16 66 10 160
61 202 109 20 23 48 67 62 97 23 47 26 69 27 150 0 85 -3 101 -29 154 -52 107
-161 189 -267 203 -21 3 -39 10 -39 15 0 4 11 6 25 2 14 -3 25 -2 25 4 0 5
-12 13 -27 17 -22 5 -24 8 -12 16 11 8 11 12 2 16 -9 3 -13 27 -13 68 0 58 2
64 23 68 22 4 22 4 -3 15 -22 10 -19 11 29 11 62 1 60 11 -7 28 l-47 12 56 -4
c31 -3 85 -14 120 -25z m-1275 -314 c3 -7 24 -17 47 -20 146 -24 237 -125 237
-266 0 -83 -31 -152 -91 -203 -40 -35 -118 -67 -162 -67 -11 0 -25 -7 -31 -16
-26 -35 -161 32 -216 107 -114 159 -49 388 131 457 65 25 78 26 85 8z m1157
-82 c101 -34 162 -149 137 -255 -24 -99 -160 -202 -197 -149 -9 12 -26 20 -44
20 -39 0 -80 22 -113 60 -24 29 -26 39 -26 120 0 81 2 91 26 120 31 36 66 56
118 65 21 4 40 14 43 21 6 17 0 17 56 -2z m-317 -434 c20 -22 60 -51 90 -66
59 -29 67 -41 15 -23 -48 17 -51 2 -3 -19 44 -18 54 -32 25 -32 -17 -1 -17 -2
0 -15 17 -12 18 -22 11 -82 -4 -37 -7 -78 -6 -90 1 -14 -4 -23 -13 -23 -8 0
-15 -4 -15 -10 0 -5 5 -10 10 -10 6 0 10 -4 10 -9 0 -6 -16 -7 -37 -4 -45 8
-38 -12 8 -21 18 -3 30 -9 26 -12 -10 -10 -119 26 -187 62 -63 33 -162 111
-127 100 18 -6 24 9 6 19 -25 16 34 152 93 217 26 29 37 35 46 26 17 -17 27
-2 12 17 -27 33 2 13 36 -25z m218 -139 c4 -5 0 -11 -6 -14 -10 -4 -11 -7 0
-18 15 -16 17 -185 2 -194 -8 -5 -8 -11 0 -20 9 -11 5 -14 -17 -17 l-28 -4 25
-11 c25 -12 25 -12 -9 -12 -25 -1 -32 3 -28 14 4 8 2 17 -4 21 -6 3 -3 11 8
20 13 10 14 13 4 14 -11 0 -13 17 -8 93 4 50 10 102 13 115 6 22 38 31 48 13z
m57 -476 c1 -22 2 -51 4 -65 5 -36 35 -362 35 -381 0 -13 -13 -18 -57 -21 -58
-5 -108 -23 -152 -55 l-24 -17 7 99 c12 170 37 469 41 475 2 3 35 5 74 5 l71
0 1 -40z m42 -492 c3 -5 8 -63 12 -130 l7 -122 -48 15 c-59 18 -102 18 -135 0
-26 -13 -27 -13 -33 24 -3 20 -15 49 -26 63 -11 14 -20 32 -20 40 0 48 112
117 191 117 26 0 50 -3 52 -7z m116 -20 c90 -30 163 -95 238 -212 34 -53 77
-150 70 -157 -2 -3 -17 2 -33 11 -50 26 -120 3 -253 -84 -67 -43 -89 -47 -54
-8 48 52 54 93 23 144 l-20 33 53 39 c28 21 62 44 75 50 28 15 29 41 2 41 -24
0 -68 -21 -127 -61 -23 -16 -44 -29 -46 -29 -2 0 -7 46 -11 102 -4 55 -10 114
-13 130 -5 28 -4 29 23 22 16 -4 49 -13 73 -21z m-124 -245 l27 -15 -41 -39
c-23 -21 -74 -79 -114 -129 -80 -99 -107 -115 -107 -67 0 17 9 50 19 75 11 25
22 70 26 101 10 77 38 100 112 93 28 -3 63 -12 78 -19z m-26 -126 c-35 -38
-91 -106 -124 -152 -33 -46 -77 -102 -97 -124 l-37 -41 -1 32 c0 57 21 136 33
124 29 -29 71 -3 139 89 43 58 137 154 144 147 4 -3 -22 -37 -57 -75z m71 -47
c0 -47 -4 -53 -58 -110 -33 -34 -144 -119 -252 -195 -139 -96 -220 -160 -282
-224 -49 -49 -88 -86 -88 -82 0 14 33 72 64 111 42 54 84 92 129 116 40 21 94
95 118 163 l14 40 5 -50 c9 -88 41 -71 145 76 29 41 83 110 120 154 75 87 85
87 85 1z m-17 -205 c12 -11 -40 -48 -183 -130 -69 -40 -149 -90 -178 -112 -78
-58 -192 -168 -192 -185 0 -9 41 23 90 70 104 99 132 119 294 212 65 38 138
83 161 101 l42 32 10 -122 10 -121 -37 -40 c-135 -144 -179 -183 -230 -207
-83 -39 -173 -59 -292 -65 -90 -5 -111 -3 -133 11 -14 9 -25 20 -25 24 0 4 23
22 50 40 28 17 50 37 50 42 0 16 -10 12 -50 -20 -90 -72 -80 -14 18 94 82 91
126 126 360 291 140 99 149 104 187 98 22 -3 44 -9 48 -13z m1 -745 c38 -13
76 -31 83 -38 16 -16 18 -54 8 -150 -12 -109 -25 -97 -40 36 -7 62 -34 104
-70 108 -11 1 -50 -1 -86 -5 -37 -5 -76 -5 -88 -1 l-22 7 25 23 c15 13 26 29
26 35 0 18 93 10 164 -15z m-244 -73 c0 -51 35 -79 106 -87 103 -11 122 -26
110 -89 -4 -22 -13 -36 -27 -39 -13 -3 -19 -12 -17 -24 3 -20 9 -19 -152 -12
-41 2 -85 0 -96 -4 -19 -6 -24 -2 -38 33 -33 83 -10 186 59 268 l28 34 13 -24
c7 -12 13 -38 14 -56z m245 -6 c17 -17 25 -39 30 -82 10 -95 18 -119 43 -122
18 -3 23 3 29 40 l7 43 8 -32 c19 -72 52 -18 46 73 -4 66 6 81 32 49 18 -21 5
-79 -33 -145 -37 -66 -38 -67 -101 -76 -65 -8 -76 5 -69 85 5 53 3 59 -21 78
-16 13 -49 23 -90 28 -69 7 -90 18 -101 52 -6 21 -4 22 42 17 26 -4 64 -1 83
4 54 16 69 14 95 -12z m-406 -245 c17 -46 19 -65 11 -86 -15 -40 -12 -150 6
-213 9 -32 33 -88 52 -127 72 -139 366 -397 513 -451 56 -21 220 -24 272 -6
21 8 43 25 52 40 14 26 14 26 15 -27 0 -48 -3 -57 -34 -85 -62 -59 -164 -71
-302 -35 -117 30 -189 68 -279 145 -93 82 -150 161 -265 369 -45 83 -98 176
-118 207 -31 52 -34 63 -30 116 3 40 16 83 41 135 20 42 38 77 40 77 2 0 14
-27 26 -59z m316 -26 c60 0 75 -4 104 -26 l33 -26 -27 -7 c-15 -4 -47 -4 -71
0 -40 6 -44 4 -44 -15 0 -22 39 -39 59 -26 6 3 43 3 82 -1 l70 -7 -28 -18
c-15 -11 -44 -22 -63 -25 -50 -9 -70 -22 -70 -44 0 -28 33 -26 78 5 37 25 62
32 62 17 0 -11 -60 -67 -87 -81 -27 -14 -30 -39 -6 -48 10 -4 23 2 34 16 17
21 77 46 88 36 7 -7 -50 -65 -64 -65 -17 0 -55 -39 -55 -55 0 -10 10 -15 30
-15 17 0 30 4 30 9 0 21 51 61 77 61 28 -1 28 -1 8 -18 -32 -28 -105 -120
-105 -131 0 -13 -41 -5 -82 15 -42 21 -75 17 -94 -11 -23 -35 -5 -73 53 -119
39 -30 43 -37 27 -43 -35 -13 -105 38 -161 120 -28 41 -54 73 -57 70 -3 -3 0
-15 6 -27 10 -19 9 -19 -5 -8 -24 20 -94 171 -106 230 -13 63 -14 139 -3 146
5 3 19 -32 32 -77 48 -170 126 -274 182 -245 32 16 49 66 50 142 1 78 -14 119
-40 114 -15 -3 -22 -18 -39 -77 -7 -25 -48 27 -92 116 -23 44 -41 88 -41 97 0
26 39 37 105 29 33 -4 92 -7 130 -8z m-146 -242 c36 -38 61 -27 75 30 11 47
26 19 26 -49 0 -76 -21 -134 -48 -134 -23 0 -64 43 -90 96 -21 41 -82 237 -81
258 0 6 22 -32 49 -84 26 -52 58 -105 69 -117z m558 -263 c96 -102 127 -148
127 -186 0 -69 -54 -98 -184 -99 -113 0 -159 8 -195 36 l-26 21 22 24 22 23
-33 31 c-28 26 -30 31 -13 36 91 28 139 73 130 120 -4 21 1 29 27 45 17 10 37
19 44 19 7 0 43 -32 79 -70z m-366 36 c19 -8 55 -17 82 -21 29 -5 47 -12 47
-21 0 -22 20 -26 45 -10 15 10 25 12 25 6 0 -21 -54 -60 -106 -77 l-53 -16
-51 39 c-50 38 -68 69 -56 99 7 19 24 19 67 1z m527 -307 c-4 -61 -31 -72
-164 -71 -78 0 -111 5 -145 20 l-44 19 80 -5 c45 -2 105 1 138 7 60 13 117 51
117 79 0 11 3 13 11 5 5 -5 9 -30 7 -54z"/>
<path d="M4615 5036 c-39 -12 -92 -35 -119 -51 -73 -43 -175 -152 -218 -231
-61 -116 -103 -344 -63 -344 13 0 15 -28 15 -195 0 -165 -2 -197 -15 -201 -13
-5 -15 -55 -15 -360 0 -308 2 -354 15 -354 13 0 15 -47 15 -359 0 -198 -3
-361 -7 -363 -27 -12 -97 -133 -89 -154 8 -21 694 -21 702 0 3 8 -17 49 -45
90 l-51 76 0 352 c-1 238 2 354 10 356 5 2 10 12 10 23 0 10 7 19 15 19 8 0
19 9 25 19 9 18 26 20 277 23 293 5 330 11 463 78 183 92 346 295 396 493 12
46 15 106 12 285 l-4 227 -42 94 c-107 235 -287 395 -510 452 -65 16 -111 19
-333 19 -219 0 -258 2 -263 15 -8 23 -98 18 -181 -9z m120 -126 c-11 -5 -37
-11 -57 -15 -21 -3 -38 -10 -38 -16 0 -9 45 -6 92 7 14 4 16 -10 16 -134 l0
-139 -33 -12 c-34 -12 -62 -37 -53 -47 3 -3 21 4 39 15 19 12 39 21 44 21 6
-1 -7 -10 -27 -20 -20 -11 -39 -24 -43 -29 -3 -6 -12 -8 -20 -4 -11 3 -21 -8
-35 -39 l-19 -44 -105 -3 c-71 -2 -106 1 -111 9 -6 9 -10 9 -16 -1 -6 -10 -9
-4 -9 17 0 23 5 33 19 37 10 2 20 16 23 31 8 39 -10 42 -21 4 -5 -18 -10 -25
-10 -15 -1 9 -5 17 -10 17 -11 0 -21 -35 -21 -72 0 -16 -5 -28 -11 -28 -14 0
-3 64 27 160 43 131 166 257 289 294 56 16 125 21 90 6z m655 -46 c151 -54
267 -150 349 -288 62 -105 91 -202 98 -332 7 -117 -16 -253 -42 -250 -17 1
-68 -101 -55 -109 5 -3 20 16 34 42 14 26 25 42 26 34 0 -8 -21 -53 -47 -100
-81 -148 -216 -261 -376 -314 -54 -17 -96 -21 -314 -25 -182 -3 -253 -1 -253
7 0 6 17 11 40 11 22 0 40 5 40 10 0 6 -18 10 -40 10 -43 0 -55 16 -17 23 l22
4 -22 8 c-20 6 -23 14 -23 65 0 51 3 58 23 64 l22 7 -22 11 c-13 6 -23 19 -23
30 0 17 12 18 203 18 112 0 230 5 262 11 110 20 201 83 258 178 50 85 61 124
61 236 0 55 2 90 5 77 6 -25 28 -27 23 -2 -11 54 -24 90 -32 90 -6 0 -10 -6
-10 -12 0 -7 -14 12 -31 42 -45 79 -112 144 -183 177 -61 28 -61 28 -316 32
-140 2 -241 7 -225 10 38 8 38 24 -1 32 l-29 7 28 1 c34 1 36 21 2 21 -24 0
-25 2 -25 65 0 63 1 65 25 65 34 0 32 20 -2 21 -21 1 -23 2 -8 6 34 8 41 23
12 23 -15 0 -27 5 -27 11 0 7 79 9 268 7 234 -4 274 -7 322 -24z m-75 -411
c126 -68 178 -215 124 -357 -24 -65 -87 -126 -147 -144 -25 -8 -121 -12 -265
-12 -191 0 -226 2 -231 15 -3 8 -12 15 -21 15 -8 0 -15 9 -15 19 0 11 -5 21
-12 23 -8 3 -10 59 -9 198 l2 194 30 27 c16 14 29 31 29 38 0 10 52 12 238 9
219 -3 240 -5 277 -25z m-934 -123 c5 0 9 19 10 43 0 36 2 39 10 19 9 -24 29
-22 29 4 0 17 95 20 105 4 5 -8 11 -7 21 1 11 9 14 7 14 -10 0 -28 17 -27 23
2 2 12 4 -68 4 -178 0 -110 -2 -190 -4 -177 -5 27 -23 29 -23 3 0 -25 -12 -27
-121 -23 l-89 3 2 197 c1 108 3 178 5 155 2 -24 8 -43 14 -43z m-30 -430 c5 0
9 16 9 35 l0 35 120 0 120 0 0 -35 c0 -19 5 -35 10 -35 6 0 10 16 10 36 0 22
4 33 10 29 7 -4 9 -46 7 -113 -4 -82 -8 -108 -21 -117 -20 -15 -23 -120 -3
-129 10 -5 10 -7 0 -12 -16 -7 -18 -134 -3 -134 6 0 10 21 11 48 0 35 3 42 9
27 12 -28 12 -183 0 -190 -6 -4 -10 13 -10 44 0 68 -20 66 -21 -1 -1 -29 -4
-43 -6 -30 -5 27 -23 29 -23 2 0 -19 -7 -20 -90 -20 -83 0 -90 1 -90 20 0 27
-18 25 -23 -2 -2 -13 -5 1 -6 30 0 28 -5 52 -10 52 -6 0 -12 -24 -14 -52 -2
-29 -3 91 -3 267 -1 176 1 303 3 283 2 -21 8 -38 14 -38z m394 -87 c-55 -7
-61 -17 -15 -23 43 -6 44 -7 20 -18 l-25 -11 23 -7 c21 -6 22 -12 22 -99 0
-87 -1 -93 -22 -99 l-23 -7 23 -9 c12 -5 22 -18 22 -30 0 -17 -6 -20 -42 -18
-37 1 -39 2 -10 5 47 6 39 23 -10 23 -38 1 -41 2 -25 14 22 17 22 26 -3 26
-19 0 -20 7 -20 95 0 88 1 95 20 95 23 0 27 15 6 23 -9 4 -12 14 -9 26 4 18
13 21 52 20 32 -2 37 -3 16 -6z m-345 -546 c0 -37 24 -31 28 6 3 25 7 27 52
27 39 0 50 -4 55 -19 3 -10 4 -23 3 -29 -2 -5 2 -11 7 -11 6 -1 13 13 16 31 6
32 6 31 8 -9 0 -24 5 -43 10 -43 6 0 12 19 14 43 2 23 4 -120 5 -318 0 -271
-2 -354 -10 -335 -11 24 -12 24 -15 4 -4 -19 -11 -21 -74 -23 -55 -1 -69 1
-69 13 0 26 -20 28 -29 4 -8 -19 -10 -15 -10 25 -1 26 -5 47 -10 47 -6 0 -12
-21 -14 -47 -2 -27 -4 112 -5 307 -2 350 -2 356 18 356 15 0 20 -7 20 -29z
m211 -767 c4 -19 5 -37 2 -40 -7 -7 -250 -6 -257 1 -3 3 -3 22 1 42 l6 38 120
-3 121 -3 7 -35z"/>
<path d="M6740 4986 c-291 -67 -511 -269 -600 -551 -31 -99 -38 -273 -16 -386
22 -108 96 -262 169 -350 131 -157 367 -279 542 -279 44 0 54 -3 58 -19 5 -19
17 -20 223 -23 l219 -3 41 -28 c104 -71 122 -214 37 -308 -58 -64 -96 -71
-405 -67 -244 3 -266 4 -298 24 -33 19 -36 24 -47 100 -6 43 -12 85 -12 92 -1
7 -8 15 -17 19 -12 4 -97 -75 -305 -283 -159 -159 -289 -294 -289 -300 0 -16
13 -20 106 -34 71 -12 86 -18 149 -66 82 -62 214 -126 311 -151 60 -16 117
-18 434 -18 l365 1 88 27 c158 49 267 117 379 235 103 109 172 244 205 396 19
88 12 293 -12 381 -77 283 -318 516 -605 585 -73 17 -118 20 -321 20 -193 0
-239 -3 -248 -14 -11 -13 -19 -13 -57 -1 -64 19 -108 56 -138 117 -60 121 -15
258 107 319 35 19 57 20 315 17 271 -3 278 -3 310 -26 26 -19 32 -31 33 -60 2
-65 23 -147 39 -150 8 -1 132 115 284 267 219 219 267 272 258 284 -7 7 -51
20 -99 27 -81 11 -93 17 -153 61 -76 57 -180 110 -265 135 -51 15 -110 18
-395 20 -242 2 -350 -1 -390 -10z m715 -111 c38 -8 101 -30 140 -49 70 -34
175 -104 175 -119 0 -4 -23 11 -52 34 -64 50 -121 80 -213 109 -64 21 -93 24
-346 28 -297 4 -376 -2 -491 -42 -126 -44 -268 -159 -334 -272 -32 -55 -41
-57 -14 -4 32 62 156 187 230 231 69 41 156 75 225 89 22 4 168 8 325 9 216 0
302 -3 355 -14z m-12 -31 c40 -9 101 -29 136 -45 68 -31 177 -107 167 -117 -3
-3 -14 2 -24 11 -30 28 -49 20 -22 -8 l24 -26 -57 -56 c-53 -54 -57 -56 -75
-40 -19 18 -42 23 -42 9 0 -4 9 -13 21 -20 12 -7 19 -16 16 -19 -3 -3 -19 4
-35 16 -31 21 -52 27 -52 14 0 -5 16 -18 36 -31 20 -13 33 -26 31 -29 -3 -3
-19 4 -36 16 -17 12 -52 32 -78 44 -45 20 -65 22 -314 25 -293 4 -347 -3 -435
-54 -58 -34 -121 -106 -152 -174 -22 -47 -26 -70 -26 -150 -1 -82 3 -103 26
-152 53 -115 175 -209 290 -224 54 -7 57 -20 2 -15 -49 4 -42 -15 9 -25 l42
-8 -37 -4 c-48 -4 -50 -22 -3 -22 l35 0 0 -65 0 -65 -35 0 c-47 0 -45 -18 3
-23 l37 -4 -42 -1 c-51 -2 -58 -22 -9 -22 19 0 38 -4 41 -10 20 -32 -169 9
-270 59 -197 97 -333 292 -354 508 -34 346 189 645 530 712 24 5 165 9 312 10
214 1 283 -2 340 -15z m405 -240 c6 -4 -150 -164 -180 -185 l-26 -19 -23 31
-22 31 93 93 93 94 31 -21 c17 -12 33 -23 34 -24z m-494 -755 c154 -21 286
-88 396 -199 62 -64 139 -188 154 -250 4 -18 2 -16 -9 8 -15 33 -43 46 -30 15
3 -10 11 -37 18 -60 13 -48 41 -61 32 -15 -4 22 -4 24 4 7 14 -29 13 -65 -1
-62 -7 1 -13 -6 -12 -15 0 -10 1 -39 2 -64 2 -37 5 -45 17 -40 12 4 15 -4 15
-42 0 -52 -24 -165 -41 -191 -11 -17 -11 -14 5 37 13 39 -18 25 -32 -15 -26
-77 -26 -77 -9 -70 23 9 22 3 -15 -62 -43 -77 -168 -200 -248 -244 -36 -20
-105 -47 -154 -61 -87 -26 -94 -26 -411 -26 -359 0 -409 7 -536 71 -69 34
-158 98 -159 114 0 5 5 4 12 -3 7 -7 19 -12 27 -12 11 0 10 4 -4 20 -24 26
-10 26 23 -1 33 -26 43 -6 10 21 l-23 19 65 65 c48 49 69 64 83 60 16 -5 18
-2 12 16 -7 21 -6 21 19 4 15 -9 30 -14 34 -10 4 4 -1 12 -11 17 -9 6 -17 14
-17 20 0 5 17 -2 38 -15 79 -53 101 -56 426 -56 244 0 311 3 347 15 96 33 196
138 222 232 7 29 16 42 27 40 12 -1 16 11 18 61 3 60 2 63 -18 57 -16 -5 -20
-2 -20 14 0 14 5 19 15 15 20 -8 19 8 -6 67 -31 71 -51 66 -24 -6 4 -11 -10 8
-33 41 -22 35 -60 76 -86 93 -83 57 -113 64 -336 71 -113 3 -184 7 -157 8 60
2 62 22 2 22 -25 0 -45 5 -45 10 0 6 9 10 21 10 11 0 17 5 14 10 -3 6 -15 10
-26 10 -18 0 -20 6 -17 92 3 89 4 92 28 99 l25 6 -24 10 -25 10 25 7 24 6 -25
15 c-23 13 -8 14 147 15 94 0 206 -5 247 -11z m-834 -890 c7 -12 -17 -41 -105
-129 l-113 -113 -31 22 -31 22 34 42 c28 33 114 117 201 196 10 9 26 -5 45
-40z"/>
<path d="M6320 2253 c-88 -46 -78 -153 20 -203 65 -33 100 -69 100 -101 0 -42
-31 -69 -81 -69 -35 0 -47 6 -75 36 l-34 35 0 -33 c0 -33 1 -34 60 -47 71 -16
103 -9 141 29 34 33 38 83 11 117 -9 11 -42 36 -72 54 -82 48 -90 57 -90 101
0 75 79 106 134 52 l26 -27 0 32 c0 23 -5 31 -17 31 -10 0 -34 3 -53 6 -23 3
-47 -1 -70 -13z"/>
<path d="M6533 2256 c15 -12 17 -33 17 -189 0 -157 -2 -177 -17 -186 -14 -8
-4 -10 42 -10 46 0 56 2 43 10 -15 8 -18 25 -18 99 l0 90 110 0 110 0 0 -84
c0 -76 -2 -86 -22 -100 -21 -15 -20 -16 35 -16 53 0 57 1 43 16 -24 24 -23
339 1 366 15 17 14 18 -36 18 -52 0 -52 0 -37 -22 11 -15 16 -46 16 -95 l0
-73 -110 0 -110 0 0 77 c0 57 4 81 17 95 15 17 14 18 -43 18 -51 -1 -57 -2
-41 -14z"/>
<path d="M7065 2253 c-77 -40 -115 -103 -115 -190 0 -69 26 -121 83 -167 36
-29 44 -31 122 -31 78 0 86 2 122 31 100 81 113 220 29 312 -53 59 -173 81
-241 45z m173 -20 c54 -40 67 -69 70 -157 5 -104 -17 -155 -78 -186 -75 -38
-151 -18 -204 53 -22 30 -33 129 -22 191 8 43 49 94 91 112 39 18 110 12 143
-13z"/>
<path d="M7433 2253 c15 -17 17 -42 17 -189 0 -119 -4 -174 -12 -182 -9 -9 -2
-12 35 -12 l47 0 -15 24 c-11 17 -15 42 -13 88 l3 63 58 5 c51 5 63 10 88 38
31 35 37 73 17 116 -20 45 -55 60 -153 64 -89 4 -90 4 -72 -15z m162 -28 c19
-18 25 -35 25 -68 0 -63 -24 -90 -81 -91 l-44 -1 0 85 c0 47 1 88 3 93 8 18
74 6 97 -18z"/>
<path d="M4138 2238 c8 -8 12 -55 12 -145 0 -147 10 -185 55 -221 52 -41 139
-37 180 8 21 23 40 26 32 5 -7 -16 8 -28 36 -30 21 -2 32 11 17 20 -15 9 -13
348 2 363 9 9 1 12 -37 11 -28 0 -44 -3 -37 -6 9 -3 12 -46 12 -163 l0 -158
-31 -31 c-61 -62 -159 -32 -179 54 -5 22 -10 93 -10 157 0 93 3 120 16 132 14
15 11 16 -32 16 -37 0 -45 -3 -36 -12z"/>
<path d="M4564 2228 c23 -32 23 -329 1 -352 -23 -22 -19 -25 30 -23 44 2 56 9
35 22 -5 3 -10 44 -10 91 0 64 3 84 14 84 25 0 64 -40 111 -115 25 -41 52 -75
58 -76 7 0 22 -2 35 -3 l23 -3 -24 26 c-13 14 -39 52 -58 85 -19 32 -42 63
-51 69 -15 10 -13 14 19 42 27 24 35 38 36 67 1 46 -17 82 -50 97 -13 6 -60
11 -104 11 l-80 0 15 -22z m143 -10 c23 -19 35 -59 28 -95 -7 -36 -45 -63 -90
-63 -25 0 -25 0 -25 91 l0 92 36 -6 c20 -3 43 -12 51 -19z"/>
<path d="M4918 2238 c16 -16 17 -368 1 -368 -5 0 -8 -4 -5 -8 8 -14 178 -2
208 14 35 18 48 43 48 89 0 42 -37 83 -83 92 l-28 6 31 18 c58 36 62 99 8 144
-26 22 -39 25 -111 25 -63 0 -78 -3 -69 -12z m143 -27 c37 -38 39 -82 4 -117
-19 -19 -34 -24 -57 -22 l-32 3 -1 70 c-1 39 1 76 3 83 7 22 53 13 83 -17z
m26 -179 c48 -36 44 -125 -6 -151 -23 -13 -70 -14 -88 -3 -13 8 -29 132 -20
156 9 22 85 21 114 -2z"/>
<path d="M5300 2078 c-30 -94 -63 -182 -73 -195 -19 -24 -20 -23 26 -27 7 -1
11 9 9 27 -2 15 4 50 13 78 l17 50 70 -3 70 -3 21 -63 c18 -55 19 -64 7 -72
-11 -7 -5 -10 22 -10 20 0 44 -3 54 -7 14 -5 14 -2 -4 23 -12 16 -37 74 -57
129 -19 55 -47 133 -61 173 -40 111 -49 103 -114 -100z"/>
<path d="M5604 2229 l26 -20 0 -163 c0 -113 -4 -166 -12 -174 -9 -9 -9 -12 0
-13 7 -1 18 -2 25 -3 21 -4 29 5 17 19 -7 8 -10 64 -8 155 l3 143 145 -162
145 -162 3 187 c1 118 7 192 13 201 9 10 5 13 -22 13 -25 0 -30 -3 -19 -10 12
-7 16 -39 18 -160 2 -82 0 -150 -5 -150 -4 0 -71 72 -148 160 -129 147 -143
160 -174 160 l-34 0 27 -21z"/>
</g>
</svg>
